<svg   width="60" height="20" viewBox="0 0 40 20" fill="none" xmlns="http://www.w3.org/2000/svg">
<rect width="40" height="20" rx="10"  fill="#FEC834"/>
<path d="M12.1625 6.8V5.252H15.0545V14H13.3265V6.8H12.1625ZM19.4501 14.108C18.9061 14.108 18.4181 14.012 17.9861 13.82C17.5541 13.62 17.2101 13.352 16.9541 13.016C16.7061 12.68 16.5701 12.308 16.5461 11.9H18.2381C18.2701 12.156 18.3941 12.368 18.6101 12.536C18.8341 12.704 19.1101 12.788 19.4381 12.788C19.7581 12.788 20.0061 12.724 20.1821 12.596C20.3661 12.468 20.4581 12.304 20.4581 12.104C20.4581 11.888 20.3461 11.728 20.1221 11.624C19.9061 11.512 19.5581 11.392 19.0781 11.264C18.5821 11.144 18.1741 11.02 17.8541 10.892C17.5421 10.764 17.2701 10.568 17.0381 10.304C16.8141 10.04 16.7021 9.684 16.7021 9.236C16.7021 8.868 16.8061 8.532 17.0141 8.228C17.2301 7.924 17.5341 7.684 17.9261 7.508C18.3261 7.332 18.7941 7.244 19.3301 7.244C20.1221 7.244 20.7541 7.444 21.2261 7.844C21.6981 8.236 21.9581 8.768 22.0061 9.44H20.3981C20.3741 9.176 20.2621 8.968 20.0621 8.816C19.8701 8.656 19.6101 8.576 19.2821 8.576C18.9781 8.576 18.7421 8.632 18.5741 8.744C18.4141 8.856 18.3341 9.012 18.3341 9.212C18.3341 9.436 18.4461 9.608 18.6701 9.728C18.8941 9.84 19.2421 9.956 19.7141 10.076C20.1941 10.196 20.5901 10.32 20.9021 10.448C21.2141 10.576 21.4821 10.776 21.7061 11.048C21.9381 11.312 22.0581 11.664 22.0661 12.104C22.0661 12.488 21.9581 12.832 21.7421 13.136C21.5341 13.44 21.2301 13.68 20.8301 13.856C20.4381 14.024 19.9781 14.108 19.4501 14.108ZM25.4012 8.732V11.948C25.4012 12.172 25.4532 12.336 25.5572 12.44C25.6692 12.536 25.8532 12.584 26.1092 12.584H26.8892V14H25.8332C24.4172 14 23.7092 13.312 23.7092 11.936V8.732H22.9172V7.352H23.7092V5.708H25.4012V7.352H26.8892V8.732H25.4012Z" fill="#C47500"/>
</svg>
