<svg width="60" height="20" viewBox="0 0 60 20" fill="none" xmlns="http://www.w3.org/2000/svg">
<rect width="60" height="20" rx="10" fill="#FEC834"/>
<path d="M29.432 6.8V5.252H32.324V14H30.596V6.8H29.432ZM36.7197 14.108C36.1757 14.108 35.6877 14.012 35.2557 13.82C34.8237 13.62 34.4797 13.352 34.2237 13.016C33.9757 12.68 33.8397 12.308 33.8157 11.9H35.5077C35.5397 12.156 35.6637 12.368 35.8797 12.536C36.1037 12.704 36.3797 12.788 36.7077 12.788C37.0277 12.788 37.2757 12.724 37.4517 12.596C37.6357 12.468 37.7277 12.304 37.7277 12.104C37.7277 11.888 37.6157 11.728 37.3917 11.624C37.1757 11.512 36.8277 11.392 36.3477 11.264C35.8517 11.144 35.4437 11.02 35.1237 10.892C34.8117 10.764 34.5397 10.568 34.3077 10.304C34.0837 10.04 33.9717 9.684 33.9717 9.236C33.9717 8.868 34.0757 8.532 34.2837 8.228C34.4997 7.924 34.8037 7.684 35.1957 7.508C35.5957 7.332 36.0637 7.244 36.5997 7.244C37.3917 7.244 38.0237 7.444 38.4957 7.844C38.9677 8.236 39.2277 8.768 39.2757 9.44H37.6677C37.6437 9.176 37.5317 8.968 37.3317 8.816C37.1397 8.656 36.8797 8.576 36.5517 8.576C36.2477 8.576 36.0117 8.632 35.8437 8.744C35.6837 8.856 35.6037 9.012 35.6037 9.212C35.6037 9.436 35.7157 9.608 35.9397 9.728C36.1637 9.84 36.5117 9.956 36.9837 10.076C37.4637 10.196 37.8597 10.32 38.1717 10.448C38.4837 10.576 38.7517 10.776 38.9757 11.048C39.2077 11.312 39.3277 11.664 39.3357 12.104C39.3357 12.488 39.2277 12.832 39.0117 13.136C38.8037 13.44 38.4997 13.68 38.0997 13.856C37.7077 14.024 37.2477 14.108 36.7197 14.108ZM42.6707 8.732V11.948C42.6707 12.172 42.7227 12.336 42.8267 12.44C42.9387 12.536 43.1227 12.584 43.3787 12.584H44.1587V14H43.1027C41.6867 14 40.9787 13.312 40.9787 11.936V8.732H40.1867V7.352H40.9787V5.708H42.6707V7.352H44.1587V8.732H42.6707Z" fill="#C47500"/>
<path fill-rule="evenodd" clip-rule="evenodd" d="M23.2 4.4V3H14.8V4.4H12V6.08C12 7.9 13.19 9.37 14.87 9.86C15.08 11.68 16.48 13.15 18.3 13.43V15.6H17.04C17.005 15.6 16.9525 15.6175 16.9 15.635C16.8475 15.6525 16.795 15.67 16.76 15.67L16.06 16.37C15.85 16.65 16.06 17 16.34 17H21.66C21.94 17 22.15 16.65 21.94 16.37L21.24 15.67C21.17 15.6 21.1 15.6 20.96 15.6H19.7V13.43C21.52 13.08 22.92 11.68 23.13 9.86C24.81 9.37 26 7.83 26 6.08V4.4H23.2ZM14.7999 8.32C13.1899 7.55 13.3999 5.8 13.3999 5.8H14.7999V8.32ZM23.2 5.8V8.32C24.81 7.48 24.6 5.8 24.6 5.8H23.2Z" fill="#C47500"/>
</svg>
