<svg  width="60" height="20" viewBox="0 0 40 20" fill="none" xmlns="http://www.w3.org/2000/svg">
<rect width="40" height="20" rx="10" fill="#E5E5E5"/>
<path d="M9.18548 12.104C9.95348 11.464 10.5655 10.932 11.0215 10.508C11.4775 10.076 11.8575 9.628 12.1615 9.164C12.4655 8.7 12.6175 8.244 12.6175 7.796C12.6175 7.388 12.5215 7.068 12.3295 6.836C12.1375 6.604 11.8415 6.488 11.4415 6.488C11.0415 6.488 10.7335 6.624 10.5175 6.896C10.3015 7.16 10.1895 7.524 10.1815 7.988H8.54948C8.58148 7.028 8.86548 6.3 9.40148 5.804C9.94548 5.308 10.6335 5.06 11.4655 5.06C12.3775 5.06 13.0775 5.304 13.5655 5.792C14.0535 6.272 14.2975 6.908 14.2975 7.7C14.2975 8.324 14.1295 8.92 13.7935 9.488C13.4575 10.056 13.0735 10.552 12.6415 10.976C12.2095 11.392 11.6455 11.896 10.9495 12.488H14.4895V13.88H8.56148V12.632L9.18548 12.104ZM19.4241 7.256C20.2161 7.256 20.8561 7.508 21.3441 8.012C21.8321 8.508 22.0761 9.204 22.0761 10.1V14H20.3961V10.328C20.3961 9.8 20.2641 9.396 20.0001 9.116C19.7361 8.828 19.3761 8.684 18.9201 8.684C18.4561 8.684 18.0881 8.828 17.8161 9.116C17.5521 9.396 17.4201 9.8 17.4201 10.328V14H15.7401V7.352H17.4201V8.18C17.6441 7.892 17.9281 7.668 18.2721 7.508C18.6241 7.34 19.0081 7.256 19.4241 7.256ZM23.2417 10.652C23.2417 9.98 23.3737 9.384 23.6377 8.864C23.9097 8.344 24.2777 7.944 24.7417 7.664C25.2057 7.384 25.7217 7.244 26.2897 7.244C26.7217 7.244 27.1337 7.34 27.5257 7.532C27.9177 7.716 28.2297 7.964 28.4617 8.276V5.12H30.1657V14H28.4617V13.016C28.2537 13.344 27.9617 13.608 27.5857 13.808C27.2097 14.008 26.7737 14.108 26.2777 14.108C25.7177 14.108 25.2057 13.964 24.7417 13.676C24.2777 13.388 23.9097 12.984 23.6377 12.464C23.3737 11.936 23.2417 11.332 23.2417 10.652ZM28.4737 10.676C28.4737 10.268 28.3937 9.92 28.2337 9.632C28.0737 9.336 27.8577 9.112 27.5857 8.96C27.3137 8.8 27.0217 8.72 26.7097 8.72C26.3977 8.72 26.1097 8.796 25.8457 8.948C25.5817 9.1 25.3657 9.324 25.1977 9.62C25.0377 9.908 24.9577 10.252 24.9577 10.652C24.9577 11.052 25.0377 11.404 25.1977 11.708C25.3657 12.004 25.5817 12.232 25.8457 12.392C26.1177 12.552 26.4057 12.632 26.7097 12.632C27.0217 12.632 27.3137 12.556 27.5857 12.404C27.8577 12.244 28.0737 12.02 28.2337 11.732C28.3937 11.436 28.4737 11.084 28.4737 10.676Z" fill="#5B5C5C"/>
</svg>
