<svg width="60" height="20" viewBox="0 0 60 20" fill="none" xmlns="http://www.w3.org/2000/svg">
<rect width="60" height="20" rx="10" fill="#E5E5E5"/>
<path d="M26.164 12.104C26.932 11.464 27.544 10.932 28 10.508C28.456 10.076 28.836 9.628 29.14 9.164C29.444 8.7 29.596 8.244 29.596 7.796C29.596 7.388 29.5 7.068 29.308 6.836C29.116 6.604 28.82 6.488 28.42 6.488C28.02 6.488 27.712 6.624 27.496 6.896C27.28 7.16 27.168 7.524 27.16 7.988H25.528C25.56 7.028 25.844 6.3 26.38 5.804C26.924 5.308 27.612 5.06 28.444 5.06C29.356 5.06 30.056 5.304 30.544 5.792C31.032 6.272 31.276 6.908 31.276 7.7C31.276 8.324 31.108 8.92 30.772 9.488C30.436 10.056 30.052 10.552 29.62 10.976C29.188 11.392 28.624 11.896 27.928 12.488H31.468V13.88H25.54V12.632L26.164 12.104ZM36.4026 7.256C37.1946 7.256 37.8346 7.508 38.3226 8.012C38.8106 8.508 39.0546 9.204 39.0546 10.1V14H37.3746V10.328C37.3746 9.8 37.2426 9.396 36.9786 9.116C36.7146 8.828 36.3546 8.684 35.8986 8.684C35.4346 8.684 35.0666 8.828 34.7946 9.116C34.5306 9.396 34.3986 9.8 34.3986 10.328V14H32.7186V7.352H34.3986V8.18C34.6226 7.892 34.9066 7.668 35.2506 7.508C35.6026 7.34 35.9866 7.256 36.4026 7.256ZM40.2202 10.652C40.2202 9.98 40.3522 9.384 40.6162 8.864C40.8882 8.344 41.2562 7.944 41.7202 7.664C42.1842 7.384 42.7002 7.244 43.2682 7.244C43.7002 7.244 44.1122 7.34 44.5042 7.532C44.8962 7.716 45.2082 7.964 45.4402 8.276V5.12H47.1442V14H45.4402V13.016C45.2322 13.344 44.9402 13.608 44.5642 13.808C44.1882 14.008 43.7522 14.108 43.2562 14.108C42.6962 14.108 42.1842 13.964 41.7202 13.676C41.2562 13.388 40.8882 12.984 40.6162 12.464C40.3522 11.936 40.2202 11.332 40.2202 10.652ZM45.4522 10.676C45.4522 10.268 45.3722 9.92 45.2122 9.632C45.0522 9.336 44.8362 9.112 44.5642 8.96C44.2922 8.8 44.0002 8.72 43.6882 8.72C43.3762 8.72 43.0882 8.796 42.8242 8.948C42.5602 9.1 42.3442 9.324 42.1762 9.62C42.0162 9.908 41.9362 10.252 41.9362 10.652C41.9362 11.052 42.0162 11.404 42.1762 11.708C42.3442 12.004 42.5602 12.232 42.8242 12.392C43.0962 12.552 43.3842 12.632 43.6882 12.632C44.0002 12.632 44.2922 12.556 44.5642 12.404C44.8362 12.244 45.0522 12.02 45.2122 11.732C45.3722 11.436 45.4522 11.084 45.4522 10.676Z" fill="#5B5C5C"/>
<path fill-rule="evenodd" clip-rule="evenodd" d="M19.2 4.4V3H10.8V4.4H8V6.08C8 7.9 9.19 9.37 10.87 9.86C11.08 11.68 12.48 13.15 14.3 13.43V15.6H13.04C13.005 15.6 12.9525 15.6175 12.9 15.635C12.8475 15.6525 12.795 15.67 12.76 15.67L12.06 16.37C11.85 16.65 12.06 17 12.34 17H17.66C17.94 17 18.15 16.65 17.94 16.37L17.24 15.67C17.17 15.6 17.1 15.6 16.96 15.6H15.7V13.43C17.52 13.08 18.92 11.68 19.13 9.86C20.81 9.37 22 7.83 22 6.08V4.4H19.2ZM10.7999 8.32C9.18987 7.55 9.39987 5.8 9.39987 5.8H10.7999V8.32ZM19.2 5.8V8.32C20.81 7.48 20.6 5.8 20.6 5.8H19.2Z" fill="#5B5C5C"/>
</svg>
