<svg width="60" height="20" viewBox="0 0 40 20" fill="none" xmlns="http://www.w3.org/2000/svg">
<path d="M0 10C0 4.47715 4.47715 0 10 0H30C35.5229 0 40 4.47715 40 10C40 15.5228 35.5229 20 30 20H10C4.47715 20 0 15.5228 0 10Z" fill="#E0621B"/>
<path d="M10.076 7.556C10.116 6.756 10.396 6.14 10.916 5.708C11.444 5.268 12.136 5.048 12.992 5.048C13.576 5.048 14.076 5.152 14.492 5.36C14.908 5.56 15.22 5.836 15.428 6.188C15.644 6.532 15.752 6.924 15.752 7.364C15.752 7.868 15.62 8.296 15.356 8.648C15.1 8.992 14.792 9.224 14.432 9.344V9.392C14.896 9.536 15.256 9.792 15.512 10.16C15.776 10.528 15.908 11 15.908 11.576C15.908 12.056 15.796 12.484 15.572 12.86C15.356 13.236 15.032 13.532 14.6 13.748C14.176 13.956 13.664 14.06 13.064 14.06C12.16 14.06 11.424 13.832 10.856 13.376C10.288 12.92 9.98802 12.248 9.95602 11.36H11.588C11.604 11.752 11.736 12.068 11.984 12.308C12.24 12.54 12.588 12.656 13.028 12.656C13.436 12.656 13.748 12.544 13.964 12.32C14.188 12.088 14.3 11.792 14.3 11.432C14.3 10.952 14.148 10.608 13.844 10.4C13.54 10.192 13.068 10.088 12.428 10.088H12.08V8.708H12.428C13.564 8.708 14.132 8.328 14.132 7.568C14.132 7.224 14.028 6.956 13.82 6.764C13.62 6.572 13.328 6.476 12.944 6.476C12.568 6.476 12.276 6.58 12.068 6.788C11.868 6.988 11.752 7.244 11.72 7.556H10.076ZM19.1076 8.384C19.3236 8.032 19.6036 7.756 19.9476 7.556C20.2996 7.356 20.6996 7.256 21.1476 7.256V9.02H20.7036C20.1756 9.02 19.7756 9.144 19.5036 9.392C19.2396 9.64 19.1076 10.072 19.1076 10.688V14H17.4276V7.352H19.1076V8.384ZM21.8472 10.652C21.8472 9.98 21.9792 9.384 22.2432 8.864C22.5152 8.344 22.8832 7.944 23.3472 7.664C23.8112 7.384 24.3272 7.244 24.8952 7.244C25.3272 7.244 25.7392 7.34 26.1312 7.532C26.5232 7.716 26.8352 7.964 27.0672 8.276V5.12H28.7712V14H27.0672V13.016C26.8592 13.344 26.5672 13.608 26.1912 13.808C25.8152 14.008 25.3792 14.108 24.8832 14.108C24.3232 14.108 23.8112 13.964 23.3472 13.676C22.8832 13.388 22.5152 12.984 22.2432 12.464C21.9792 11.936 21.8472 11.332 21.8472 10.652ZM27.0792 10.676C27.0792 10.268 26.9992 9.92 26.8392 9.632C26.6792 9.336 26.4632 9.112 26.1912 8.96C25.9192 8.8 25.6272 8.72 25.3152 8.72C25.0032 8.72 24.7152 8.796 24.4512 8.948C24.1872 9.1 23.9712 9.324 23.8032 9.62C23.6432 9.908 23.5632 10.252 23.5632 10.652C23.5632 11.052 23.6432 11.404 23.8032 11.708C23.9712 12.004 24.1872 12.232 24.4512 12.392C24.7232 12.552 25.0112 12.632 25.3152 12.632C25.6272 12.632 25.9192 12.556 26.1912 12.404C26.4632 12.244 26.6792 12.02 26.8392 11.732C26.9992 11.436 27.0792 11.084 27.0792 10.676Z" fill="#9B2500"/>
</svg>
