<svg width="60" height="20" viewBox="0 0 60 20" fill="none" xmlns="http://www.w3.org/2000/svg">
<path d="M0 10C0 4.47715 4.47715 0 10 0H50C55.5228 0 60 4.47715 60 10C60 15.5228 55.5228 20 50 20H10C4.47715 20 0 15.5228 0 10Z" fill="#E0621B"/>
<path d="M27.66 7.556C27.7 6.756 27.98 6.14 28.5 5.708C29.028 5.268 29.72 5.048 30.576 5.048C31.16 5.048 31.66 5.152 32.076 5.36C32.492 5.56 32.804 5.836 33.012 6.188C33.228 6.532 33.336 6.924 33.336 7.364C33.336 7.868 33.204 8.296 32.94 8.648C32.684 8.992 32.376 9.224 32.016 9.344V9.392C32.48 9.536 32.84 9.792 33.096 10.16C33.36 10.528 33.492 11 33.492 11.576C33.492 12.056 33.38 12.484 33.156 12.86C32.94 13.236 32.616 13.532 32.184 13.748C31.76 13.956 31.248 14.06 30.648 14.06C29.744 14.06 29.008 13.832 28.44 13.376C27.872 12.92 27.572 12.248 27.54 11.36H29.172C29.188 11.752 29.32 12.068 29.568 12.308C29.824 12.54 30.172 12.656 30.612 12.656C31.02 12.656 31.332 12.544 31.548 12.32C31.772 12.088 31.884 11.792 31.884 11.432C31.884 10.952 31.732 10.608 31.428 10.4C31.124 10.192 30.652 10.088 30.012 10.088H29.664V8.708H30.012C31.148 8.708 31.716 8.328 31.716 7.568C31.716 7.224 31.612 6.956 31.404 6.764C31.204 6.572 30.912 6.476 30.528 6.476C30.152 6.476 29.86 6.58 29.652 6.788C29.452 6.988 29.336 7.244 29.304 7.556H27.66ZM36.6916 8.384C36.9076 8.032 37.1876 7.756 37.5316 7.556C37.8836 7.356 38.2836 7.256 38.7316 7.256V9.02H38.2876C37.7596 9.02 37.3596 9.144 37.0876 9.392C36.8236 9.64 36.6916 10.072 36.6916 10.688V14H35.0116V7.352H36.6916V8.384ZM39.4312 10.652C39.4312 9.98 39.5632 9.384 39.8272 8.864C40.0992 8.344 40.4672 7.944 40.9312 7.664C41.3952 7.384 41.9112 7.244 42.4792 7.244C42.9112 7.244 43.3232 7.34 43.7152 7.532C44.1072 7.716 44.4192 7.964 44.6512 8.276V5.12H46.3552V14H44.6512V13.016C44.4432 13.344 44.1512 13.608 43.7752 13.808C43.3992 14.008 42.9632 14.108 42.4672 14.108C41.9072 14.108 41.3952 13.964 40.9312 13.676C40.4672 13.388 40.0992 12.984 39.8272 12.464C39.5632 11.936 39.4312 11.332 39.4312 10.652ZM44.6632 10.676C44.6632 10.268 44.5832 9.92 44.4232 9.632C44.2632 9.336 44.0472 9.112 43.7752 8.96C43.5032 8.8 43.2112 8.72 42.8992 8.72C42.5872 8.72 42.2992 8.796 42.0352 8.948C41.7712 9.1 41.5552 9.324 41.3872 9.62C41.2272 9.908 41.1472 10.252 41.1472 10.652C41.1472 11.052 41.2272 11.404 41.3872 11.708C41.5552 12.004 41.7712 12.232 42.0352 12.392C42.3072 12.552 42.5952 12.632 42.8992 12.632C43.2112 12.632 43.5032 12.556 43.7752 12.404C44.0472 12.244 44.2632 12.02 44.4232 11.732C44.5832 11.436 44.6632 11.084 44.6632 10.676Z" fill="#9B2500"/>
<path fill-rule="evenodd" clip-rule="evenodd" d="M21.2 4.4V3H12.8V4.4H10V6.08C10 7.9 11.19 9.37 12.87 9.86C13.08 11.68 14.48 13.15 16.3 13.43V15.6H15.04C15.005 15.6 14.9525 15.6175 14.9 15.635C14.8475 15.6525 14.795 15.67 14.76 15.67L14.06 16.37C13.85 16.65 14.06 17 14.34 17H19.66C19.94 17 20.15 16.65 19.94 16.37L19.24 15.67C19.17 15.6 19.1 15.6 18.96 15.6H17.7V13.43C19.52 13.08 20.92 11.68 21.13 9.86C22.81 9.37 24 7.83 24 6.08V4.4H21.2ZM12.7999 8.32C11.1899 7.55 11.3999 5.8 11.3999 5.8H12.7999V8.32ZM21.2 5.8V8.32C22.81 7.48 22.6 5.8 22.6 5.8H21.2Z" fill="#9B2500"/>
</svg>
