<svg width="45" height="45" viewBox="0 0 45 45" fill="none" xmlns="http://www.w3.org/2000/svg">
<path fill-rule="evenodd" clip-rule="evenodd" d="M31 23C31 27.4183 27.4183 31 23 31C18.5817 31 15 27.4183 15 23C15 18.5817 18.5817 15 23 15C27.4183 15 31 18.5817 31 23ZM32 23C32 27.9706 27.9706 32 23 32C18.0294 32 14 27.9706 14 23C14 18.0294 18.0294 14 23 14C27.9706 14 32 18.0294 32 23ZM28.3942 22.3128H29.0003C28.6851 19.5182 26.4759 17.3144 23.6744 17V17.6046C23.6744 17.9762 23.3728 18.2772 23.0002 18.2772C22.6276 18.2772 22.3259 17.9762 22.3259 17.6046V17C19.5244 17.3144 17.3152 19.5182 17 22.3128H17.6061C17.9788 22.3128 18.2804 22.6138 18.2804 22.9854C18.2804 23.357 17.9788 23.658 17.6061 23.658H17C17.3041 26.3548 19.6177 28.5102 22.281 28.9409V28.3662C22.281 27.9945 22.5827 27.6936 22.9552 27.6936C23.3279 27.6936 23.6295 27.9945 23.6295 28.3662V29.0006C26.5688 28.8153 28.6742 26.5504 29.0003 23.658H28.3942C28.0217 23.658 27.7199 23.357 27.7199 22.9854C27.7199 22.6138 28.0217 22.3128 28.3942 22.3128ZM25.666 23.6656H22.9993C22.6309 23.6656 22.3326 23.3673 22.3326 22.9989V20.3321C22.3326 19.9638 22.6309 19.6654 22.9993 19.6654C23.3677 19.6654 23.666 19.9638 23.666 20.3321V22.3322H25.666C26.0345 22.3322 26.3327 22.6306 26.3327 22.9989C26.3327 23.3673 26.0345 23.6656 25.666 23.6656Z" fill="#24D3B4"/>
</svg>
